<?xml version="1.0" encoding="UTF-8" standalone="no"?>
<svg width="163px" height="33px" viewBox="0 0 163 33" version="1.1" xmlns="http://www.w3.org/2000/svg" xmlns:xlink="http://www.w3.org/1999/xlink">
    <!-- Generator: Sketch 40 (33762) - http://www.bohemiancoding.com/sketch -->
    <title>Combined Shape Copy 2</title>
    <desc>Created with Sketch.</desc>
    <defs></defs>
    <g id="Page-1" stroke="none" stroke-width="1" fill="none" fill-rule="evenodd">
        <path d="M153.547732,20.75214 C153.379846,20.9094532 153.202798,21.06295 153.016586,21.2126316 C152.64206,21.5136857 152.240231,21.76842 151.811086,21.9768421 C151.381942,22.1852642 150.952804,22.2894737 150.523659,22.2894737 C150.008686,22.2894737 149.579547,22.1254402 149.236232,21.7973684 C148.892916,21.4692966 148.596421,20.9926347 148.346737,20.3673684 C148.159473,20.5835099 147.929299,20.8035077 147.656207,21.0273684 C147.383115,21.2512292 147.084669,21.4538587 146.76086,21.6352632 C146.437051,21.8166676 146.099592,21.9652626 145.748474,22.0810526 C145.397356,22.1968427 145.046243,22.2547368 144.695125,22.2547368 C144.320598,22.2547368 143.955831,22.1794744 143.600811,22.0289474 C143.245792,21.8784203 142.931741,21.6622821 142.658649,21.3805263 C142.385557,21.0987705 142.167086,20.7552652 142.003231,20.35 C141.979744,20.2919089 141.95794,20.2327474 141.93782,20.1725154 C141.856629,20.2041865 141.775049,20.2344006 141.693078,20.2631579 C141.142993,20.4561413 140.614373,20.5526316 140.107202,20.5526316 C139.709268,20.5526316 139.332797,20.5063163 138.977777,20.4136842 C138.622757,20.3210522 138.310657,20.174387 138.041466,19.9736842 C137.772276,19.7729815 137.557706,19.5124577 137.397753,19.1921053 C137.237799,18.8717528 137.153922,18.4838619 137.146119,18.0284211 C136.88083,18.645968 136.603841,19.2114009 136.315143,19.7247368 C136.026446,20.2380727 135.729951,20.6799981 135.425648,21.0505263 C135.121346,21.4210545 134.813146,21.7105253 134.501041,21.9189474 C134.188936,22.1273695 133.876836,22.2315789 133.56473,22.2315789 C133.455494,22.2315789 133.359913,22.1485973 133.277985,21.9826316 C133.196058,21.8166658 133.127786,21.5928084 133.073167,21.3110526 C133.018549,21.0292968 132.973684,20.7012299 132.938573,20.3268421 C132.903461,19.9524543 132.876152,19.5568442 132.856645,19.14 C132.837139,18.7231558 132.823484,18.294739 132.815682,17.8547368 C132.807879,17.4147346 132.803978,16.9863179 132.803978,16.5694737 L132.464565,16.5115789 C132.238289,17.3529867 131.971053,18.122979 131.662849,18.8215789 C131.354645,19.5201789 131.024989,20.1222782 130.673871,20.6278947 C130.322753,21.1335113 129.959936,21.5271916 129.58541,21.8089474 C129.210883,22.0907032 128.844165,22.2315789 128.485244,22.2315789 C127.876639,22.2315789 127.429946,21.7877237 127.14515,20.9 C127.093101,20.7377601 127.045808,20.56134 127.003271,20.3707394 C126.75148,20.5128418 126.512028,20.6468057 126.284914,20.7726316 C125.699717,21.0968437 125.178899,21.3670165 124.722446,21.5831579 C124.265992,21.7992993 123.860261,21.961403 123.505242,22.0694737 C123.150222,22.1775444 122.828368,22.2315789 122.539671,22.2315789 C121.946671,22.2315789 121.423903,22.0540369 120.971351,21.6989474 C120.518798,21.3438579 120.140376,20.8324595 119.836074,20.1647368 C119.777351,20.035884 119.721462,19.9017855 119.668406,19.7624411 C119.554943,19.8603242 119.429422,19.9616155 119.291843,20.0663158 C119.038258,20.2592992 118.757367,20.4522797 118.449163,20.6452632 C118.14096,20.8382466 117.813254,21.0235079 117.466037,21.2010526 C117.11882,21.3785974 116.769658,21.5349116 116.41854,21.67 C116.067421,21.8050884 115.720209,21.9131575 115.376894,21.9942105 C115.033578,22.0752636 114.713675,22.1157895 114.417175,22.1157895 C114.120675,22.1157895 113.867094,22.0578953 113.656423,21.9421053 C113.445752,21.8263152 113.264343,21.6642116 113.112192,21.4557895 C112.960041,21.2473674 112.831299,20.9984225 112.725964,20.7089474 C112.620628,20.4194722 112.528949,20.0971948 112.450923,19.7421053 C112.170028,20.1049141 111.873533,20.4387704 111.561427,20.7436842 C111.249322,21.048598 110.93137,21.3129813 110.607561,21.5368421 C110.283752,21.7607029 109.956046,21.9363152 109.624435,22.0636842 C109.292823,22.1910533 108.970969,22.2547368 108.658864,22.2547368 C108.401377,22.2547368 108.159499,22.2122811 107.933223,22.1273684 C107.706947,22.0424557 107.506032,21.8996501 107.330473,21.6989474 C107.154914,21.4982446 107.016419,21.2338613 106.914985,20.9057895 C106.813551,20.5777177 106.762835,20.1705287 106.762835,19.6842105 C106.770637,18.6729774 106.844761,17.8971957 106.985209,17.3568421 C107.119343,16.9056539 107.248352,16.3277341 107.372237,15.6230758 C107.118577,15.3872714 106.854974,15.1353701 106.581425,14.8673684 C106.179589,14.4736822 105.783612,14.1398259 105.39348,13.8657895 C105.003349,13.591753 104.667841,13.3621062 104.386946,13.1768421 L104.293315,13.3042105 C104.519591,13.7519321 104.689296,14.2247344 104.802434,14.7226316 C104.915572,15.2205288 104.97214,15.7821021 104.97214,16.4073684 C104.97214,16.8628093 104.921424,17.3221029 104.81999,17.7852632 C104.718556,18.2484234 104.572259,18.6961382 104.381094,19.1284211 C104.18993,19.5607039 103.955855,19.965963 103.678861,20.3442105 C103.401868,20.722458 103.085866,21.0505249 102.730847,21.3284211 C102.375827,21.6063172 101.987652,21.826315 101.56631,21.9884211 C101.144968,22.1505271 100.696324,22.2315789 100.220363,22.2315789 C99.533732,22.2315789 98.946593,22.0829839 98.4589287,21.7857895 C97.9712644,21.488595 97.5713857,21.1007041 97.2592805,20.6221053 C97.0263152,20.2648636 96.8400854,19.8732192 96.7005885,19.4471652 C96.2946755,19.7157304 95.8781599,19.9510592 95.4510304,20.1531579 C95.0023792,20.3654397 94.5342285,20.5487712 94.0465642,20.7031579 C93.5588999,20.8575446 93.0419835,20.9964906 92.4957995,21.12 C92.3631548,21.2512287 92.1817464,21.3824555 91.9515689,21.5136842 C91.7213913,21.6449129 91.4931679,21.7645609 91.2668916,21.8726316 C91.0094049,21.996141 90.7324157,22.1157889 90.4359158,22.2315789 L90.1433187,22.2315789 C88.9261087,22.2315789 88.2667964,22.2161405 88.1653622,22.1852632 C87.2290468,21.930525 86.6399572,21.7298253 86.3980757,21.5831579 C86.0303409,21.347001 85.6732792,21.1055698 85.3268833,20.8588592 C85.1939524,20.9790612 85.0555522,21.0969851 84.9116823,21.2126316 C84.5371562,21.5136857 84.1353268,21.76842 83.7061822,21.9768421 C83.2770377,22.1852642 82.8478995,22.2894737 82.4187549,22.2894737 C81.9037814,22.2894737 81.4746433,22.1254402 81.1313276,21.7973684 C80.788012,21.4692966 80.4915165,20.9926347 80.2418324,20.3673684 C80.0545693,20.5835099 79.8243952,20.8035077 79.5513032,21.0273684 C79.2782112,21.2512292 78.9797651,21.4538587 78.6559561,21.6352632 C78.332147,21.8166676 77.9946883,21.9652626 77.64357,22.0810526 C77.2924518,22.1968427 76.9413387,22.2547368 76.5902204,22.2547368 C76.2156943,22.2547368 75.8509268,22.1794744 75.4959072,22.0289474 C75.1408876,21.8784203 74.8268365,21.6622821 74.5537445,21.3805263 C74.3523922,21.1727861 74.1807333,20.9314777 74.0387652,20.6565968 C73.8111318,20.8114278 73.5848599,20.958176 73.3599483,21.0968421 C73.1336721,21.2357902 72.8956955,21.3728063 72.6460113,21.5078947 C72.3963272,21.6429831 72.1505481,21.7626311 71.9086666,21.8668421 C71.6667851,21.9710532 71.4307592,22.0559646 71.2005816,22.1215789 C70.9704041,22.1871933 70.7577856,22.22 70.5627199,22.22 C70.4534831,22.22 70.291581,22.1968423 70.0770087,22.1505263 C69.8624364,22.1042103 69.628361,22.0096498 69.3747756,21.8668421 C69.1211902,21.7240344 68.8676086,21.5175452 68.6140231,21.2473684 C68.3604377,20.9771916 68.1400167,20.6182479 67.9527536,20.1705263 C67.6640564,20.4484224 67.3578078,20.7128058 67.0339987,20.9636842 C66.7101896,21.2145627 66.3746816,21.4326307 66.0274646,21.6178947 C65.6802477,21.8031588 65.3291346,21.9517538 64.974115,22.0636842 C64.6190954,22.1756146 64.2621305,22.2315789 63.9032096,22.2315789 C63.3960387,22.2315789 62.9571474,22.1235099 62.5865226,21.9073684 C62.2158977,21.691227 61.9076985,21.403686 61.6619157,21.0447368 C61.6063687,20.9636142 61.5540101,20.8800277 61.5048398,20.7939771 C60.6896223,21.2235143 60.1704457,21.4865723 59.9472966,21.5831579 C59.3386916,21.8533347 58.9602698,22.0077191 58.8120198,22.0463158 C58.4218884,22.1698252 58.0122565,22.2315789 57.5831119,22.2315789 C57.1539674,22.2315789 56.7931012,21.9247399 56.5005026,21.3110526 C56.207904,20.6973654 56.061607,19.8000059 56.061607,18.6189474 C56.061607,18.1557872 56.092817,17.6559676 56.155238,17.1194737 C56.2176591,16.5829798 56.2956842,16.005968 56.3893157,15.3884211 L56.2020536,15.3884211 L53.1356358,21.4094737 C52.9717806,21.7336858 52.7962241,21.949824 52.608961,22.0578947 C52.4138953,22.1736848 52.1876225,22.2315789 51.9301357,22.2315789 C51.6102279,22.2315789 51.352745,22.1640358 51.1576793,22.0289474 C50.9626136,21.893859 50.8124153,21.7124573 50.7070798,21.4847368 C50.6017443,21.2570164 50.5315217,20.9984225 50.4964099,20.7089474 C50.4903897,20.6593148 50.4848856,20.6093986 50.4798976,20.5591989 C50.4352885,20.5878869 50.3900757,20.616575 50.3442594,20.6452632 C50.0360555,20.8382466 49.70835,21.0235079 49.3611331,21.2010526 C49.0139161,21.3785974 48.6647537,21.5349116 48.3136354,21.67 C47.9625171,21.8050884 47.6153053,21.9131575 47.2719897,21.9942105 C46.928674,22.0752636 46.608771,22.1157895 46.3122711,22.1157895 C46.0157712,22.1157895 45.7621896,22.0578953 45.5515186,21.9421053 C45.3408477,21.8263152 45.1594393,21.6642116 45.007288,21.4557895 C44.8551367,21.2473674 44.7263953,20.9984225 44.6210598,20.7089474 C44.5157243,20.4194722 44.4240448,20.0971948 44.3460185,19.7421053 C44.0651239,20.1049141 43.7686284,20.4387704 43.4565233,20.7436842 C43.1444182,21.048598 42.8264658,21.3129813 42.5026567,21.5368421 C42.1788476,21.7607029 41.8511421,21.9363152 41.5195304,22.0636842 C41.1879187,22.1910533 40.8660651,22.2547368 40.5539599,22.2547368 C40.2964732,22.2547368 40.0545953,22.2122811 39.8283191,22.1273684 C39.6020429,22.0424557 39.4011282,21.8996501 39.225569,21.6989474 C39.0500099,21.4982446 38.9115153,21.2338613 38.8100811,20.9057895 C38.708647,20.5777177 38.6579306,20.1705287 38.6579306,19.6842105 C38.6657333,18.6729774 38.7398571,17.8971957 38.8803044,17.3568421 C39.0144387,16.9056539 39.1434477,16.3277341 39.2673327,15.6230758 C39.0136725,15.3872714 38.7500697,15.1353701 38.4765204,14.8673684 C38.074685,14.4736822 37.6787076,14.1398259 37.2885761,13.8657895 C36.8984447,13.591753 36.5629367,13.3621062 36.2820421,13.1768421 L36.188411,13.3042105 C36.4146872,13.7519321 36.5843919,14.2247344 36.69753,14.7226316 C36.8106681,15.2205288 36.8672363,15.7821021 36.8672363,16.4073684 C36.8672363,16.8628093 36.81652,17.3221029 36.7150858,17.7852632 C36.6136516,18.2484234 36.4673545,18.6961382 36.2761901,19.1284211 C36.0850257,19.5607039 35.8509504,19.965963 35.5739571,20.3442105 C35.2969637,20.722458 34.980962,21.0505249 34.6259424,21.3284211 C34.2709228,21.6063172 33.8827479,21.826315 33.4614059,21.9884211 C33.040064,22.1505271 32.5914195,22.2315789 32.1154592,22.2315789 C31.4288279,22.2315789 30.8416889,22.0829839 30.3540246,21.7857895 C29.8663603,21.488595 29.4664815,21.1007041 29.1543764,20.6221053 C28.8422712,20.1435064 28.6140478,19.6031609 28.4696991,19.0010526 C28.4380253,18.8689343 28.4098265,18.7364447 28.3851028,18.6035838 C28.2441418,18.6580311 28.1006839,18.7075381 27.9547282,18.7521053 C27.6387218,18.848597 27.3168682,18.8968421 26.9891578,18.8968421 C26.4039606,18.8968421 25.9319086,18.779124 25.5729877,18.5436842 C25.2140668,18.3082444 24.9292751,17.9994756 24.7186042,17.6173684 C24.5079332,17.2352612 24.3518829,16.8068445 24.2504488,16.3321053 C24.1490146,15.857366 24.0670882,15.3768445 24.0046672,14.8905263 L23.817405,14.8905263 L21.7224097,20.6684211 C21.6131729,20.9694752 21.5097896,21.2184201 21.4122568,21.4152632 C21.3147239,21.6121062 21.2152419,21.7722801 21.1138077,21.8957895 C21.0123735,22.0192989 20.9031384,22.1061401 20.7860989,22.1563158 C20.6690595,22.2064915 20.5403181,22.2315789 20.3998708,22.2315789 C20.079963,22.2315789 19.8224801,22.1640358 19.6274144,22.0289474 C19.4323487,21.893859 19.2821503,21.7124573 19.1768148,21.4847368 C19.0869021,21.2903583 19.0225729,21.0734852 18.9838258,20.8341127 C18.9663261,20.8464199 18.9487286,20.8587332 18.9310332,20.8710526 C18.6150268,21.0910537 18.2736669,21.3052621 17.9069433,21.5136842 C17.5402198,21.7221063 17.1656992,21.9073676 16.7833704,22.0694737 C16.4010416,22.2315798 16.0167679,22.3608767 15.6305378,22.4573684 C15.2443077,22.5538601 14.8717378,22.6021053 14.5128168,22.6021053 C14.2631327,22.6021053 14.0115017,22.5596495 13.7579163,22.4747368 C13.5043308,22.3898241 13.2741568,22.2335099 13.0673871,22.0057895 C12.8606174,21.778069 12.6909128,21.4635108 12.5582681,21.0621053 C12.4256234,20.6606997 12.3593021,20.1396523 12.3593021,19.4989474 C12.3593021,19.2287706 12.3788084,18.93737 12.4178215,18.6247368 C12.4568346,18.3121037 12.507551,17.9743878 12.569972,17.6115789 C12.1330248,18.483864 11.6395159,19.3194697 11.0894306,20.1184211 C10.5393453,20.9173724 9.9541569,21.5426293 9.33384792,21.9942105 C8.71353894,22.4457917 8.07178235,22.7873673 7.40855891,23.0189474 C6.74533547,23.2505275 6.08212198,23.3663158 5.41889854,23.3663158 C4.69325407,23.3663158 4.00468242,23.2408784 3.35316292,22.99 C2.70164342,22.7391216 2.12620819,22.3647393 1.62683995,21.8668421 C1.12747171,21.3689449 0.731494247,20.7494774 0.43889567,20.0084211 C0.146297094,19.2673647 0,18.2715852 0,17.0210526 C0,16.272277 0.0877782563,15.488776 0.263337402,14.6705263 C0.438896548,13.8522766 0.694428805,13.02632 1.02994184,12.1926316 C1.36545487,11.3589432 1.77118548,10.5329865 2.24714583,9.71473684 C2.72310618,8.89648714 3.26538074,8.11877562 3.87398578,7.38157895 C4.48259082,6.64438228 5.14775494,5.96123122 5.8694981,5.33210526 C6.59124125,4.70297931 7.36173928,4.15877423 8.18101529,3.69947368 C9.00029131,3.24017314 9.86246885,2.87929956 10.7675738,2.61684211 C11.6726787,2.35438465 12.6128814,2.22315789 13.58821,2.22315789 C13.8534993,2.22315789 14.0661178,2.24438575 14.2260717,2.28684211 C14.3860255,2.32929846 14.5069645,2.38333301 14.5888921,2.44894737 C14.6708197,2.51456173 14.7234866,2.58210492 14.7468945,2.65157895 C14.7703024,2.72105298 14.7820062,2.78280675 14.7820062,2.83684211 C14.7820062,2.87543879 14.7800555,2.91017528 14.7761542,2.94105263 C14.7722529,2.97192998 14.7703023,2.99508764 14.7703023,3.01052632 C14.9809733,3.19193044 15.1955423,3.26719285 15.4140159,3.29421053 C15.6324895,3.32122821 15.8470586,3.34438587 16.0577296,3.36368421 C16.2684006,3.38298255 16.4673646,3.42350846 16.6546277,3.48526316 C16.8418908,3.54701785 17.0057435,3.66859558 17.1461909,3.85 C17.2866382,4.03140442 17.397824,4.29578774 17.4797516,4.64315789 C17.5616792,4.99052805 17.6026423,5.46140054 17.6026423,6.05578947 C17.6026423,6.51894968 17.5577779,7.03999711 17.4680477,7.61894737 C17.3783174,8.19789763 17.2593291,8.80385648 17.1110792,9.43684211 C16.9628293,10.0698277 16.7970259,10.7105231 16.6136641,11.3589474 C16.4303023,12.0073717 16.2469433,12.6364882 16.0635815,13.2463158 C15.8802198,13.8561434 15.7027126,14.4312254 15.5310548,14.9715789 C15.359397,15.5119325 15.2150505,15.982805 15.0980111,16.3842105 C15.0746032,16.7238613 15.0550969,17.0403494 15.0394916,17.3336842 C15.0238864,17.627019 15.0160839,17.9319282 15.0160839,18.2484211 C15.0160839,18.4954398 15.0219357,18.6980694 15.0336397,18.8563158 C15.0453436,19.0145622 15.0668005,19.1399995 15.0980111,19.2326316 C15.1292216,19.3252636 15.1721354,19.3889472 15.2267538,19.4236842 C15.2813722,19.4584212 15.3515948,19.4757895 15.4374237,19.4757895 C15.5934763,19.4757895 15.7904897,19.4352636 16.0284699,19.3542105 C16.2664501,19.2731575 16.5200317,19.168948 16.7892224,19.0415789 C17.0584131,18.9142099 17.3393035,18.7714043 17.6319021,18.6131579 C17.9245006,18.4549115 18.2053911,18.2966675 18.4745817,18.1384211 C18.6780558,18.0188068 18.8714972,17.906912 19.0549093,17.8027348 C19.0776167,17.6043365 19.1026467,17.4016709 19.1299993,17.1947368 C19.1963216,16.6929799 19.2743467,16.1815816 19.364077,15.6605263 C19.4538072,15.1394711 19.5688943,14.5836872 19.7093416,13.9931579 C19.8497889,13.4026286 19.9707278,12.9105283 20.072162,12.5168421 C20.1735962,12.1231559 20.2750288,11.7989486 20.376463,11.5442105 C20.438884,11.3743851 20.5013041,11.2392987 20.5637251,11.1389474 C20.6261462,11.038596 20.6983194,10.959474 20.780247,10.9015789 C20.8621746,10.8436839 20.9636073,10.8050878 21.084548,10.7857895 C21.2054887,10.7664911 21.3556871,10.7568421 21.5351476,10.7568421 C21.7380159,10.7568421 21.8960168,10.7664911 22.0091549,10.7857895 C22.122293,10.8050878 22.20617,10.8514031 22.2607884,10.9247368 C22.3154068,10.9980705 22.3485675,11.1042098 22.3602714,11.2431579 C22.3719754,11.382106 22.3778272,11.5712269 22.3778272,11.8105263 C22.3778272,12.0961418 22.358321,12.5014009 22.3193078,13.0263158 C22.2802947,13.5512307 22.2685909,14.0105243 22.2841962,14.4042105 L22.4129389,14.4042105 C22.5689915,14.0954371 22.7640543,13.6901779 22.9981331,13.1884211 C23.232212,12.6866642 23.4779911,12.2698262 23.7354778,11.9378947 C23.9929646,11.6059633 24.2855588,11.3261415 24.6132692,11.0984211 C24.9409796,10.8707006 25.3194014,10.7568421 25.748546,10.7568421 C25.8967959,10.7568421 26.0411424,10.7819296 26.1815897,10.8321053 C26.322037,10.882281 26.4449266,10.9536837 26.5502621,11.0463158 C26.6555976,11.1389478 26.7394746,11.2528063 26.8018956,11.3878947 C26.8643166,11.5229831 26.8955267,11.6754377 26.8955267,11.8452632 C26.8955267,11.9764919 26.8760204,12.1598234 26.8370073,12.3952632 C26.7979941,12.6307029 26.735574,12.937542 26.6497451,13.3157895 C26.5639162,13.694037 26.5014961,14.0047356 26.4624829,14.2478947 C26.4234698,14.4910538 26.4039635,14.6936834 26.4039635,14.8557895 C26.4039635,15.1336856 26.4312723,15.3652622 26.4858907,15.5505263 C26.5405091,15.7357904 26.6126823,15.8843854 26.7024126,15.9963158 C26.7921428,16.1082462 26.8935755,16.1873682 27.0067136,16.2336842 C27.1198517,16.2800002 27.23884,16.3031579 27.3636821,16.3031579 C27.6679647,16.3031579 27.981033,16.2451856 28.3028941,16.1292394 C28.3621304,15.5406932 28.4743005,15.0100718 28.6394055,14.5373684 C28.8968922,13.8001718 29.2655609,13.1594764 29.7454226,12.6152632 C30.2252842,12.0710499 30.8124232,11.6426331 31.5068572,11.33 C32.2012911,11.0173669 32.9815423,10.8610526 33.8476341,10.8610526 C34.5888838,10.8610526 35.2833074,10.9749111 35.9309255,11.2026316 C36.5785437,11.430352 37.185189,11.7352612 37.7508796,12.1173684 C38.3165702,12.4994756 38.8432397,12.9799971 39.330904,13.5589474 C39.4012287,13.6424362 39.4708637,13.725363 39.539809,13.8077278 C39.5561866,13.695307 39.5840837,13.5486972 39.6235011,13.3678947 C39.6664156,13.1710516 39.7249344,12.9568433 39.7990594,12.7252632 C39.8731844,12.4936831 39.9648639,12.2582468 40.0741007,12.0189474 C40.1833375,11.7796479 40.3120789,11.5635097 40.4603289,11.3705263 C40.6085788,11.1775429 40.7821847,11.0192989 40.9811517,10.8957895 C41.1801188,10.7722801 41.404441,10.7066667 41.6541251,10.6989474 C42.0676644,10.714386 42.3641598,10.7664908 42.5436203,10.8552632 C42.7230808,10.9440355 42.8128097,11.0540344 42.8128097,11.1852632 C42.742586,11.594388 42.6665115,12.0498221 42.5845839,12.5515789 C42.5026563,13.0533358 42.4187793,13.5589448 42.3329504,14.0684211 C42.2471215,14.5778973 42.1437382,15.14526 42.0227974,15.7705263 C41.9018567,16.3957926 41.8101772,16.897542 41.7477562,17.2757895 C41.6853351,17.654037 41.6365694,17.9589462 41.6014576,18.1905263 C41.5663458,18.4221064 41.5487901,18.5417543 41.5487901,18.5494737 C41.5487901,18.6884217 41.5624445,18.8215783 41.5897537,18.9489474 C41.6170629,19.0763164 41.6580261,19.1901749 41.7126445,19.2905263 C41.7672629,19.3908777 41.8374855,19.4719295 41.9233144,19.5336842 C42.0091433,19.5954389 42.110576,19.6263158 42.2276154,19.6263158 C42.3992733,19.6263158 42.5748298,19.5819303 42.7542902,19.4931579 C42.9337507,19.4043855 43.1015047,19.2750886 43.2575573,19.1052632 C43.4214125,18.9508764 43.5657589,18.7501767 43.690601,18.5031579 C43.8154431,18.2638585 43.9090732,17.9859665 43.9714942,17.6694737 L45.2589215,11.3589474 C45.2979347,11.1736833 45.4559355,11.0173691 45.7329288,10.89 C46.0099222,10.7626309 46.3239733,10.6989474 46.6750915,10.6989474 C47.0730256,10.6989474 47.3890273,10.7684204 47.6231062,10.9073684 C47.8571851,11.0463165 47.9742227,11.2238586 47.9742227,11.44 C47.9742227,11.6484221 47.9508152,11.9321035 47.9039994,12.2910526 C47.8571837,12.6500018 47.7967142,13.0436821 47.7225892,13.4721053 C47.6484642,13.9005285 47.5470316,14.4138567 47.4182882,15.0121053 C47.2895448,15.6103539 47.1881122,16.1063138 47.1139872,16.5 C47.0398622,16.8936862 46.9793928,17.2391213 46.932577,17.5363158 C46.8857612,17.8335103 46.8623537,18.0399994 46.8623537,18.1557895 C46.8623537,18.3719309 46.866255,18.5707008 46.8740576,18.7521053 C46.8818602,18.9335097 46.9052677,19.0917537 46.9442809,19.2268421 C46.983294,19.3619305 47.0437635,19.46614 47.1256911,19.5394737 C47.2076187,19.6128074 47.326607,19.6494737 47.4826596,19.6494737 C47.6543174,19.6494737 47.8630346,19.607018 48.1088174,19.5221053 C48.3546002,19.4371926 48.6159844,19.323334 48.8929777,19.1805263 C49.169971,19.0377186 49.452812,18.8756149 49.7415093,18.6942105 C50.0159318,18.5217757 50.2780129,18.340625 50.5277597,18.1507534 C50.5308775,18.1159854 50.5340821,18.0809974 50.5373734,18.0457895 C50.5997945,17.3780668 50.6778196,16.6447408 50.7714511,15.8457895 C50.8650827,15.0468381 50.9704166,14.3270207 51.087456,13.6863158 C51.2044955,13.0456108 51.3176319,12.4975461 51.4268687,12.0421053 C51.5126976,11.6870158 51.678501,11.3898258 51.9242838,11.1505263 C52.1700666,10.9112269 52.5036239,10.7915789 52.9249659,10.7915789 C53.3463078,10.7915789 53.638902,10.9189461 53.8027572,11.1736842 C53.9666124,11.4284223 54.0485388,11.7680681 54.0485388,12.1926316 C54.0485388,12.3084216 54.036835,12.4647359 54.0134272,12.6615789 C53.9900193,12.858422 53.9607599,13.0745602 53.925648,13.31 C53.8905362,13.5454398 53.8534743,13.7885952 53.8144611,14.0394737 C53.775448,14.2903521 53.738386,14.5759633 53.7032742,14.8963158 C53.6681624,15.2166683 53.638903,15.4559641 53.6154951,15.6142105 C53.5920872,15.7724569 53.5803834,15.8785962 53.5803834,15.9326316 L53.8144611,15.9326316 C53.8612769,15.8477189 53.9354008,15.7107027 54.0368349,15.5215789 C54.1382691,15.3324552 54.2553068,15.0603527 54.3879515,14.7052632 C54.5205961,14.3501737 54.662992,14.0356154 54.8151432,13.7615789 C54.9672945,13.4875425 55.1096903,13.225089 55.242335,12.9742105 C55.3749797,12.7233321 55.4959187,12.5014045 55.6051555,12.3084211 C55.7143923,12.1154376 55.7963186,11.972632 55.850937,11.88 C56.1006211,11.4631558 56.3854128,11.1775446 56.7053206,11.0231579 C57.0252284,10.8687712 57.3802427,10.7915789 57.7703741,10.7915789 C58.1605055,10.7915789 58.4706554,10.9536826 58.7008329,11.2778947 C58.9310105,11.6021069 59.0460975,12.0498217 59.0460975,12.6210526 C59.0460975,12.7059653 59.0285419,12.8487709 58.99343,13.0494737 C58.9583182,13.2501764 58.9134538,13.4894723 58.8588354,13.7673684 C58.804217,14.0452645 58.7437475,14.4042083 58.6774251,14.8442105 C58.6111028,15.2842127 58.5506333,15.677893 58.4960149,16.0252632 C58.4413965,16.3726333 58.3965321,16.7161387 58.3614203,17.0557895 C58.3263084,17.3954403 58.3087528,17.7080687 58.3087528,17.9936842 C58.3087528,18.4722831 58.3692222,18.8659634 58.490163,19.1747368 C58.6111037,19.4835103 58.8003146,19.6378947 59.0578014,19.6378947 C59.1514329,19.6378947 59.2840756,19.6031582 59.4557335,19.5336842 C59.7132202,19.4410522 59.877073,19.3600003 59.9472966,19.2905263 C60.2906123,19.0280689 60.47007,18.9007017 60.4856753,18.9084211 C60.5031415,18.914181 60.653105,18.8296869 60.935569,18.654937 C60.9321383,18.5739049 60.9304229,18.4924347 60.9304229,18.4105263 C60.9304229,17.9164888 60.9947936,17.4166692 61.123537,16.9110526 C61.2522804,16.4054361 61.4395407,15.9152655 61.6853235,15.4405263 C61.9311063,14.9657871 62.2041942,14.4698271 62.5045954,13.9526316 C62.8049966,13.435436 63.2029247,12.9645635 63.6983916,12.54 C64.1938585,12.1154365 64.7029724,11.7950888 65.2257485,11.5789474 C65.7485247,11.3628059 66.3064043,11.2277196 66.899404,11.1736842 C66.9228119,10.1856091 67.0125408,9.30561789 67.1685934,8.53368421 C67.324646,7.76175053 67.5314125,6.93965348 67.7888993,6.06736842 C68.046386,5.19508336 68.3487333,4.38842476 68.6959503,3.64736842 C69.0431673,2.90631208 69.4235397,2.26561674 69.8370791,1.72526316 C70.2506184,1.18490958 70.6914603,0.762282226 71.159618,0.457368421 C71.6277757,0.152454616 72.1115315,0 72.6108997,0 C72.9776232,0 73.2897237,0.0945604579 73.5472105,0.283684211 C73.8046972,0.472807963 74.0134144,0.723682647 74.1733683,1.03631579 C74.3333222,1.34894893 74.4484092,1.71175232 74.5186329,2.12473684 C74.5888565,2.53772136 74.6239678,2.96420833 74.6239678,3.40421053 C74.6239678,3.67438732 74.6122641,3.95227927 74.5888562,4.23789474 C74.487422,5.32632123 74.3001617,6.35490744 74.0270697,7.32368421 C73.7539777,8.29246098 73.4340747,9.23613576 73.0673512,10.1547368 C72.7006276,11.0733379 72.3026995,11.984206 71.873555,12.8873684 C71.2181342,14.2691297 70.8006998,15.2070151 70.6212393,15.7010526 C70.5822262,15.8091233 70.5432136,15.9403501 70.5042005,16.0947368 C70.4651873,16.2491236 70.4281254,16.4170166 70.3930136,16.5984211 C70.3579017,16.7798255 70.3286423,16.9650868 70.3052344,17.1542105 C70.2818266,17.3433343 70.2701228,17.5266658 70.2701228,17.7042105 C70.2701228,17.9280713 70.2837772,18.1403499 70.3110864,18.3410526 C70.3383956,18.5417554 70.38326,18.7212273 70.4456811,18.8794737 C70.5081021,19.0377201 70.5919791,19.1631574 70.6973146,19.2557895 C70.8026501,19.3484215 70.9333421,19.3947368 71.0893947,19.3947368 C71.2376446,19.3947368 71.3995468,19.3657898 71.5751059,19.3078947 C71.7506651,19.2499997 71.9359747,19.1708777 72.1310404,19.0705263 C72.3261061,18.9701749 72.5231196,18.8563164 72.7220866,18.7289474 C72.9210536,18.6015783 73.1141658,18.4722814 73.3014289,18.3410526 C73.4402376,18.2411785 73.5810864,18.136863 73.7239758,18.0281058 C73.7646889,17.7535965 73.8228058,17.4758075 73.898327,17.1947368 C74.0621822,16.5849092 74.3157638,15.9249158 74.6590795,15.2147368 C75.0023951,14.5045579 75.3710638,13.8908798 75.7650966,13.3736842 C76.1591293,12.8564886 76.5902181,12.4049142 77.0583758,12.0189474 C77.5265335,11.6329805 78.0200424,11.3261415 78.5389172,11.0984211 C79.057792,10.8707006 79.5864122,10.7568421 80.1247936,10.7568421 C80.304254,10.7568421 80.4446992,10.7915786 80.5461334,10.8610526 C80.6475676,10.9305267 80.7314446,11.0096487 80.7977669,11.0984211 C80.8640893,11.1871934 80.92846,11.2740347 80.990881,11.3589474 C81.0533021,11.4438601 81.1313272,11.5056138 81.2249587,11.5442105 C81.3185903,11.5828072 81.414171,11.6078947 81.5117039,11.6194737 C81.6092367,11.6310527 81.7087188,11.6368421 81.8101529,11.6368421 C81.8959819,11.6368421 81.9837601,11.6349123 82.0734903,11.6310526 C82.1632206,11.627193 82.2509988,11.6252632 82.3368277,11.6252632 C82.4538672,11.6252632 82.5631023,11.636842 82.6645365,11.66 C82.7659707,11.683158 82.8556996,11.7333329 82.9337259,11.8105263 C83.0117521,11.8877197 83.0722216,11.9957888 83.1151361,12.1347368 C83.1580505,12.2736849 83.1795074,12.4628058 83.1795074,12.7021053 C83.1795074,13.0726334 83.1404949,13.483682 83.0624686,13.9352632 C82.9844423,14.3868444 82.8986147,14.8499976 82.8049831,15.3247368 C82.7113516,15.7994761 82.5982152,16.3378917 82.4655705,16.94 C82.3329258,17.5421083 82.2666044,18.0554365 82.2666044,18.48 C82.2666044,18.8428088 82.2997651,19.1264902 82.3660875,19.3310526 C82.4324098,19.5356151 82.5748056,19.6378947 82.7932792,19.6378947 C82.9571344,19.6378947 83.1287897,19.5973688 83.3082502,19.5163158 C83.4877106,19.4352628 83.669119,19.3291235 83.8524808,19.1978947 C84.0358426,19.066666 84.2192016,18.918071 84.4025634,18.7521053 C84.5859251,18.5861395 84.759531,18.4143869 84.9233862,18.2368421 C85.055285,18.093036 85.1876473,17.9427996 85.3204738,17.7861324 C85.3680533,17.2764673 85.426854,16.7049517 85.4968766,16.0715789 C85.6529291,14.6126243 85.8011769,13.5435122 85.9416242,12.8642105 C86.0118478,12.0999962 86.105478,11.2547415 86.2225174,10.3284211 C86.316149,9.61824206 86.4663473,8.73246145 86.673117,7.67105263 C86.8798866,6.60964382 87.1412708,5.62930274 87.4572772,4.73 C87.7732837,3.83069726 88.1243967,3.02982807 88.5106268,2.32736842 C88.896857,1.62490877 89.3181926,1.06140563 89.7746464,0.636842105 C90.2311001,0.212278579 90.724609,0 91.2551878,0 C91.8481875,0 92.3241408,0.100349874 92.6830617,0.301052632 C93.0419826,0.501755389 93.3189718,0.773857932 93.5140375,1.11736842 C93.7091032,1.46087891 93.8378446,1.86420821 93.9002657,2.32736842 C93.9626867,2.79052863 93.9938967,3.28455878 93.9938967,3.80947368 C93.9938967,4.54281068 93.8554022,5.29929435 93.5784088,6.07894737 C93.3014155,6.85860039 92.9405494,7.63631191 92.4957995,8.41210526 C92.0510497,9.18789862 91.5536396,9.94631208 91.0035542,10.6873684 C90.4534689,11.4284248 89.9053425,12.1270143 89.3591585,12.7831579 L89.5464206,12.9105263 C89.9833678,12.3701727 90.3832466,11.9359666 90.7460688,11.6078947 C91.108891,11.2798229 91.4697572,11.1157895 91.8286781,11.1157895 C92.2890332,11.1157895 92.6986651,11.2161393 93.057586,11.4168421 C93.4165069,11.6175449 93.7208049,11.883858 93.970489,12.2157895 C94.2201731,12.547721 94.4113346,12.9298224 94.5439793,13.3621053 C94.676624,13.7943881 94.7429454,14.2459626 94.7429454,14.7168421 C94.7429454,15.1105283 94.7273403,15.4829807 94.6961298,15.8342105 C94.6649193,16.1854404 94.6083511,16.5289457 94.5264235,16.8647368 C94.4444959,17.200528 94.3313595,17.5343843 94.1870108,17.8663158 C94.0426622,18.1982473 93.8534513,18.5417526 93.6193724,18.8968421 C93.9002671,18.734736 94.1850588,18.576492 94.473756,18.4221053 C94.7624533,18.2677185 95.0530968,18.0978957 95.3456954,17.9126316 C95.638294,17.7273675 95.9328388,17.5208783 96.2293387,17.2931579 C96.2720996,17.2603163 96.3150227,17.2266319 96.358108,17.1921046 C96.3580903,17.1852636 96.3580814,17.1784218 96.3580814,17.1715789 C96.3580814,16.1526265 96.4868229,15.2745651 96.7443096,14.5373684 C97.0017964,13.8001718 97.370465,13.1594764 97.8503267,12.6152632 C98.3301884,12.0710499 98.9173274,11.6426331 99.6117613,11.33 C100.306195,11.0173669 101.086446,10.8610526 101.952538,10.8610526 C102.693788,10.8610526 103.388212,10.9749111 104.03583,11.2026316 C104.683448,11.430352 105.290093,11.7352612 105.855784,12.1173684 C106.421474,12.4994756 106.948144,12.9799971 107.435808,13.5589474 C107.506133,13.6424362 107.575768,13.725363 107.644713,13.8077278 C107.661091,13.695307 107.688988,13.5486972 107.728405,13.3678947 C107.77132,13.1710516 107.829839,12.9568433 107.903964,12.7252632 C107.978088,12.4936831 108.069768,12.2582468 108.179005,12.0189474 C108.288242,11.7796479 108.416983,11.5635097 108.565233,11.3705263 C108.713483,11.1775429 108.887089,11.0192989 109.086056,10.8957895 C109.285023,10.7722801 109.509345,10.7066667 109.759029,10.6989474 C110.172569,10.714386 110.469064,10.7664908 110.648524,10.8552632 C110.827985,10.9440355 110.917714,11.0540344 110.917714,11.1852632 C110.84749,11.594388 110.771416,12.0498221 110.689488,12.5515789 C110.60756,13.0533358 110.523683,13.5589448 110.437855,14.0684211 C110.352026,14.5778973 110.248642,15.14526 110.127702,15.7705263 C110.006761,16.3957926 109.915081,16.897542 109.85266,17.2757895 C109.790239,17.654037 109.741474,17.9589462 109.706362,18.1905263 C109.67125,18.4221064 109.653694,18.5417543 109.653694,18.5494737 C109.653694,18.6884217 109.667349,18.8215783 109.694658,18.9489474 C109.721967,19.0763164 109.76293,19.1901749 109.817549,19.2905263 C109.872167,19.3908777 109.94239,19.4719295 110.028219,19.5336842 C110.114047,19.5954389 110.21548,19.6263158 110.33252,19.6263158 C110.504177,19.6263158 110.679734,19.5819303 110.859194,19.4931579 C111.038655,19.4043855 111.206409,19.2750886 111.362461,19.1052632 C111.526317,18.9508764 111.670663,18.7501767 111.795505,18.5031579 C111.920347,18.2638585 112.013977,17.9859665 112.076398,17.6694737 L113.363826,11.3589474 C113.402839,11.1736833 113.56084,11.0173691 113.837833,10.89 C114.114826,10.7626309 114.428877,10.6989474 114.779996,10.6989474 C115.17793,10.6989474 115.493931,10.7684204 115.72801,10.9073684 C115.962089,11.0463165 116.079127,11.2238586 116.079127,11.44 C116.079127,11.6484221 116.055719,11.9321035 116.008904,12.2910526 C115.962088,12.6500018 115.901618,13.0436821 115.827493,13.4721053 C115.753368,13.9005285 115.651936,14.4138567 115.523192,15.0121053 C115.394449,15.6103539 115.293016,16.1063138 115.218891,16.5 C115.144766,16.8936862 115.084297,17.2391213 115.037481,17.5363158 C114.990665,17.8335103 114.967258,18.0399994 114.967258,18.1557895 C114.967258,18.3719309 114.971159,18.5707008 114.978962,18.7521053 C114.986764,18.9335097 115.010172,19.0917537 115.049185,19.2268421 C115.088198,19.3619305 115.148668,19.46614 115.230595,19.5394737 C115.312523,19.6128074 115.431511,19.6494737 115.587564,19.6494737 C115.759222,19.6494737 115.967939,19.607018 116.213722,19.5221053 C116.459504,19.4371926 116.720888,19.323334 116.997882,19.1805263 C117.274875,19.0377186 117.557716,18.8756149 117.846413,18.6942105 C118.135111,18.5128061 118.410149,18.3217554 118.671537,18.1210526 C118.84102,17.9909183 119.000659,17.8615966 119.150458,17.7330858 C118.998933,16.7850695 118.923171,15.7179112 118.923171,14.5315789 C118.923171,14.0684187 118.942677,13.5743886 118.98169,13.0494737 C119.020703,12.5245588 119.075321,12.0035114 119.145545,11.4863158 C118.911466,11.4554384 118.730057,11.4264914 118.601314,11.3994737 C118.472571,11.372456 118.336027,11.3454387 118.191678,11.3184211 C118.047329,11.2914034 117.86397,11.2624563 117.641595,11.2315789 C117.419221,11.2007016 117.097367,11.1621055 116.676025,11.1157895 C116.488762,11.0926315 116.344415,11.0482459 116.242981,10.9826316 C116.141547,10.9170172 116.067423,10.839825 116.020607,10.7510526 C115.973792,10.6622803 115.946483,10.5696496 115.93868,10.4731579 C115.930878,10.3766662 115.926976,10.2936846 115.926976,10.2242105 C115.926976,10.0698238 116.003051,9.95210567 116.155202,9.87105263 C116.307353,9.78999959 116.502416,9.73017563 116.740396,9.69157895 C116.978377,9.65298226 117.239761,9.63175441 117.524557,9.62789474 C117.809353,9.62403507 118.08244,9.62596487 118.343829,9.63368421 C118.605217,9.64140355 118.839292,9.64719296 119.046062,9.65105263 C119.252831,9.6549123 119.395227,9.64912288 119.473253,9.63368421 C119.683924,8.59157374 119.95116,7.58228558 120.274969,6.60578947 C120.598779,5.62929336 120.961595,4.76088099 121.363431,4.00052632 C121.765266,3.24017164 122.204157,2.63035317 122.680118,2.17105263 C123.156078,1.71175209 123.655439,1.48210526 124.178215,1.48210526 C124.513728,1.48210526 124.819977,1.57473592 125.09697,1.76 C125.373963,1.94526408 125.609989,2.19227916 125.805055,2.50105263 C126.000121,2.80982611 126.150319,3.17069969 126.255654,3.58368421 C126.36099,3.99666873 126.413657,4.42701531 126.413657,4.87473684 C126.413657,5.25298435 126.359039,5.65245404 126.249803,6.07315789 C126.140566,6.49386175 125.992318,6.92227852 125.805055,7.35842105 C125.617792,7.79456358 125.397371,8.23648899 125.143785,8.68421053 C124.8902,9.13193206 124.622964,9.57578727 124.342069,10.0157895 C124.412293,10.0235088 124.529331,10.0273684 124.693186,10.0273684 C124.857041,10.0273684 125.046252,10.0331578 125.260824,10.0447368 C125.475397,10.0563158 125.707521,10.0678947 125.957205,10.0794737 C126.20689,10.0910527 126.448767,10.1007017 126.682846,10.1084211 C126.916925,10.1161404 127.135395,10.1238596 127.338264,10.1315789 C127.541132,10.1392983 127.708886,10.1470175 127.841531,10.1547368 C127.997583,10.1624562 128.11072,10.2396484 128.180943,10.3863158 C128.240149,10.5099715 128.274396,10.6610606 128.283685,10.8395865 C128.487411,10.7072299 128.730153,10.6410526 129.011919,10.6410526 L129.292813,10.6642105 C129.636128,10.6642105 129.899463,10.7317537 130.082825,10.8668421 C130.266187,11.0019305 130.357866,11.1814024 130.357866,11.4052632 L129.421555,18.1326316 L129.573706,18.1210526 C129.917021,17.3336803 130.234974,16.5366707 130.527572,15.73 C130.820171,14.9233293 131.073753,14.2614061 131.288325,13.7442105 C131.502897,13.227015 131.709664,12.7754405 131.908631,12.3894737 C132.107598,12.0035068 132.324117,11.6831592 132.558196,11.4284211 C132.792275,11.1736829 133.05561,10.9826322 133.348209,10.8552632 C133.640807,10.7278941 133.989969,10.6642105 134.395706,10.6642105 C134.739022,10.6642105 135.002357,10.7317537 135.185718,10.8668421 C135.36908,11.0019305 135.46076,11.1814024 135.46076,11.4052632 L134.372298,18.1326316 L134.547857,18.1210526 L137.462124,11.4747368 C137.555755,11.2585954 137.758621,11.0675447 138.070726,10.9015789 C138.382831,10.7356132 138.75345,10.6526316 139.182595,10.6526316 C139.627345,10.6526316 139.98626,10.7433324 140.259352,10.9247368 C140.532444,11.1061413 140.668988,11.3396477 140.668988,11.6252632 C140.668988,11.8414046 140.631926,12.0729812 140.557801,12.32 C140.483676,12.5670188 140.403701,12.7966656 140.317872,13.0089474 C140.232043,13.2212291 140.150116,13.4026308 140.07209,13.5531579 C139.994064,13.703685 139.95115,13.7866666 139.943347,13.8021053 C139.77169,14.1108787 139.594182,14.4736821 139.410821,14.8905263 C139.227459,15.3073705 139.081162,15.6161393 138.971925,15.8168421 C138.83928,16.0484222 138.722243,16.2645604 138.620809,16.4652632 C138.730045,16.7663173 138.870491,17.03649 139.042148,17.2757895 C139.190398,17.4764922 139.373757,17.6617535 139.592231,17.8315789 C139.810705,18.0014044 140.072089,18.0863158 140.376391,18.0863158 C140.633878,18.0863158 140.930373,18.0187726 141.265886,17.8836842 C141.488372,17.7941042 141.702279,17.6968877 141.907608,17.5920334 C141.935575,17.4603377 141.96745,17.3279056 142.003231,17.1947368 C142.167086,16.5849092 142.420668,15.9249158 142.763984,15.2147368 C143.107299,14.5045579 143.475968,13.8908798 143.870001,13.3736842 C144.264033,12.8564886 144.695122,12.4049142 145.16328,12.0189474 C145.631438,11.6329805 146.124947,11.3261415 146.643821,11.0984211 C147.162696,10.8707006 147.691316,10.7568421 148.229698,10.7568421 C148.409158,10.7568421 148.549603,10.7915786 148.651038,10.8610526 C148.752472,10.9305267 148.836349,11.0096487 148.902671,11.0984211 C148.968993,11.1871934 149.033364,11.2740347 149.095785,11.3589474 C149.158206,11.4438601 149.236231,11.5056138 149.329863,11.5442105 C149.423494,11.5828072 149.519075,11.6078947 149.616608,11.6194737 C149.714141,11.6310527 149.813623,11.6368421 149.915057,11.6368421 C150.000886,11.6368421 150.088664,11.6349123 150.178394,11.6310526 C150.268125,11.627193 150.355903,11.6252632 150.441732,11.6252632 C150.558771,11.6252632 150.668006,11.636842 150.769441,11.66 C150.870875,11.683158 150.960604,11.7333329 151.03863,11.8105263 C151.116656,11.8877197 151.177126,11.9957888 151.22004,12.1347368 C151.262955,12.2736849 151.284412,12.4628058 151.284412,12.7021053 C151.284412,13.0726334 151.245399,13.483682 151.167373,13.9352632 C151.089346,14.3868444 151.003519,14.8499976 150.909887,15.3247368 C150.816256,15.7994761 150.703119,16.3378917 150.570475,16.94 C150.43783,17.5421083 150.371509,18.0554365 150.371509,18.48 C150.371509,18.8428088 150.404669,19.1264902 150.470992,19.3310526 C150.537314,19.5356151 150.67971,19.6378947 150.898183,19.6378947 C151.062039,19.6378947 151.233694,19.5973688 151.413154,19.5163158 C151.592615,19.4352628 151.774023,19.3291235 151.957385,19.1978947 C152.140747,19.066666 152.324106,18.918071 152.507468,18.7521053 C152.690829,18.5861395 152.864435,18.4143869 153.02829,18.2368421 C153.061947,18.200147 153.095634,18.1630332 153.129351,18.1255007 C153.145681,17.7750558 153.172464,17.4416444 153.209701,17.1252632 C153.276023,16.5617516 153.39111,15.8708813 153.554965,15.0526316 C153.71882,14.2343819 153.894377,13.5878971 154.08164,13.1131579 C154.268903,12.6384187 154.483472,12.1578972 154.725354,11.6715789 C154.904814,11.3242088 155.162297,11.0598255 155.49781,10.8784211 C155.833323,10.6970166 156.161029,10.6063158 156.480936,10.6063158 C156.754028,10.6063158 156.988104,10.673859 157.183169,10.8089474 C157.378235,10.9440358 157.475766,11.1543845 157.475766,11.44 C157.475766,11.5249127 157.466013,11.6175434 157.446507,11.7178947 C157.427,11.8182461 157.39384,11.9263152 157.347024,12.0421053 C157.206576,12.3971948 157.068082,12.8159625 156.931536,13.2984211 C156.79499,13.7808796 156.654545,14.4292942 156.510196,15.2436842 C156.365847,16.0580742 156.262464,16.7084186 156.200043,17.1947368 C156.137622,17.6810551 156.106412,18.1094718 156.106412,18.48 C156.106412,18.6729834 156.120066,18.8601745 156.147376,19.0415789 C156.174685,19.2229834 156.22345,19.385087 156.293674,19.5278947 C156.363898,19.6707025 156.457528,19.7864908 156.574567,19.8752632 C156.691607,19.9640355 156.839855,20.0084211 157.019315,20.0084211 C157.308012,20.0084211 157.569396,19.8849135 157.803475,19.6378947 C158.037554,19.390876 158.240419,19.0936859 158.412077,18.7463158 C158.583735,18.3989456 158.72223,18.0400019 158.827565,17.6694737 C158.932901,17.2989455 159.001173,16.9901767 159.032383,16.7431579 L159.968694,12.4126316 C160.023312,12.1578935 160.132547,11.9263168 160.296403,11.7178947 C160.452455,11.517192 160.635814,11.3454393 160.846485,11.2026316 C161.057156,11.0598238 161.275627,10.9536846 161.501903,10.8842105 C161.728179,10.8147365 161.942748,10.78 162.145616,10.78 C162.387498,10.78 162.590363,10.8321047 162.754218,10.9363158 C162.918074,11.0405268 163,11.2045603 163,11.4284211 C163,11.4978951 162.988296,11.5789469 162.964888,11.6715789 C162.918073,11.8722817 162.859554,12.1463141 162.78933,12.4936842 C162.719106,12.8410544 162.643032,13.2347346 162.561104,13.6747368 C162.479177,14.114739 162.375793,14.7342065 162.250951,15.5331579 C162.126109,16.3321093 162.024677,16.9747344 161.94665,17.4610526 C161.751585,18.6035145 161.552621,19.8308706 161.349752,21.1431579 C161.27008,21.6585297 161.217109,23.7349104 161.139082,24.1015789 C161.061056,24.4682474 160.971327,25.1494687 160.869893,26.1452632 C160.838682,26.4308786 160.819176,26.6508764 160.811374,26.8052632 C160.77236,27.168072 160.725545,27.5173667 160.670927,27.8531579 C160.616309,28.188949 160.534382,28.5710505 160.425145,28.9994737 C160.315909,29.4278969 160.187167,29.8215772 160.038917,30.1805263 C159.890667,30.5394755 159.695604,30.8964895 159.453723,31.2515789 C159.211841,31.6066684 158.944605,31.9096479 158.652007,32.1605263 C158.359408,32.4114048 158.006345,32.6140343 157.592805,32.7684211 C157.179266,32.9228078 156.72672,33 156.235155,33 C155.837221,33 155.468552,32.9556145 155.129138,32.8668421 C154.789723,32.7780697 154.479573,32.6410536 154.198679,32.4557895 C153.917784,32.2705254 153.68761,32.0177209 153.50815,31.6973684 C153.328689,31.3770159 153.223355,31.0007039 153.192145,30.5684211 C153.129724,29.7501713 153.355997,28.8856186 153.87097,27.9747368 C154.159667,27.4652606 154.362533,27.1121062 154.479572,26.9152632 C154.596611,26.7184201 154.779971,26.4347387 155.029655,26.0642105 C155.279339,25.7014017 155.540723,25.3733348 155.813815,25.08 C156.359999,24.4701724 156.810594,23.9800019 157.165614,23.6094737 C157.520633,23.2389455 157.943919,22.8414056 158.435485,22.4168421 L158.69297,21.0157895 C158.271629,21.3863176 157.832737,21.6854375 157.376283,21.9131579 C156.91983,22.1408783 156.477037,22.2547368 156.047893,22.2547368 C155.673366,22.2547368 155.308599,22.1794744 154.953579,22.0289474 C154.59856,21.8784203 154.284509,21.6622821 154.011417,21.3805263 C153.833733,21.1972055 153.679172,20.9877443 153.547732,20.75214 Z M126.737322,18.0147833 C126.690215,18.0485407 126.642797,18.082034 126.595067,18.1152632 C126.279061,18.3352643 125.959158,18.5378938 125.635349,18.7231579 C125.31154,18.908422 125.00334,19.0685958 124.710742,19.2036842 C124.418143,19.3387726 124.148956,19.4449119 123.903174,19.5221053 C123.657391,19.5992986 123.452575,19.6378947 123.28872,19.6378947 C123.02343,19.6378947 122.783503,19.5973688 122.568931,19.5163158 C122.354359,19.4352628 122.17295,19.304036 122.0247,19.1226316 C121.87645,18.9412272 121.763314,18.7077207 121.685288,18.4221053 C121.607261,18.1364898 121.568249,17.7852652 121.568249,17.3684211 C121.568249,17.206315 121.570199,17.0287729 121.574101,16.8357895 C121.578002,16.6428061 121.583854,16.4421063 121.591656,16.2336842 C121.599459,16.0252621 121.607262,15.8149133 121.615064,15.6026316 C121.622867,15.3903498 121.630669,15.1838607 121.638472,14.9831579 C121.66188,14.5199977 121.689189,14.0491252 121.720399,13.5705263 C121.915465,13.3312269 122.128083,13.0629839 122.358261,12.7657895 C122.588438,12.468595 122.816662,12.1656156 123.042938,11.8568421 L127.450649,11.8568421 C127.416597,11.930034 127.384987,12.0052971 127.35582,12.0826316 C127.258287,12.3412294 127.180262,12.5901742 127.121742,12.8294737 C127.063222,13.0687731 127.020308,13.2829815 126.992999,13.4721053 C126.96569,13.661229 126.948134,13.7943856 126.940332,13.8715789 C126.916924,14.1803524 126.877911,14.521928 126.823293,14.8963158 C126.768674,15.2707036 126.737464,15.5524552 126.729662,15.7415789 C126.721859,15.9307027 126.717958,16.1198236 126.717958,16.3089474 L126.717958,16.9631579 C126.717958,17.3329457 126.724413,17.6834874 126.737322,18.0147833 Z M14.8756373,4.66631579 C14.6025452,4.58912242 14.3197042,4.53315807 14.0271056,4.49842105 C13.734507,4.46368404 13.451666,4.44631579 13.178574,4.44631579 C12.5465611,4.44631579 11.9223601,4.56596372 11.3059525,4.80526316 C10.6895448,5.0445626 10.090702,5.37069969 9.50940619,5.78368421 C8.92811035,6.19666873 8.37413202,6.68297966 7.84745458,7.24263158 C7.32077715,7.8022835 6.82921891,8.40438274 6.37276513,9.04894737 C5.91631135,9.69351199 5.50472886,10.3631544 5.13800531,11.0578947 C4.77128176,11.7526351 4.45528004,12.4454351 4.18999067,13.1363158 C3.92470129,13.8271964 3.72183599,14.4987687 3.58138867,15.1510526 C3.44094135,15.8033366 3.37071875,16.403506 3.37071875,16.9515789 C3.37071875,18.3024629 3.5911397,19.2770146 4.03198822,19.8752632 C4.47283675,20.4735118 5.15750715,20.7726316 6.08601996,20.7726316 C6.66341449,20.7726316 7.21154093,20.6529837 7.73041574,20.4136842 C8.24929055,20.1743848 8.73109564,19.8598265 9.17584548,19.47 C9.62059532,19.0801735 10.0282766,18.5745645 10.3989014,17.9531579 C10.7695263,17.3317513 11.0933305,16.7701779 11.3703238,16.2684211 C11.6473172,15.7666642 11.8755406,15.282283 12.0550011,14.8152632 C12.2344615,14.3482433 12.363203,13.944914 12.4412293,13.6052632 L14.8756373,4.66631579 Z M33.3443671,19.6089474 C33.5940512,19.3426302 33.8125215,19.0068441 33.9997846,18.6015789 C34.1870477,18.1963138 34.337246,17.7061432 34.4503841,17.1310526 C34.5635223,16.555962 34.6200905,16.0445636 34.6200905,15.5968421 C34.6200905,15.2417526 34.5927817,14.9117559 34.5381633,14.6068421 C34.4835449,14.3019283 34.4016185,14.037545 34.2923817,13.8136842 C34.1831449,13.5898234 34.0426997,13.4122814 33.8710419,13.2810526 C33.699384,13.1498239 33.4926175,13.0842105 33.250736,13.0842105 C32.9308282,13.0842105 32.6265302,13.2192969 32.337833,13.4894737 C32.0491357,13.7596505 31.7955541,14.1050856 31.5770805,14.5257895 C31.3586069,14.9464933 31.1869516,15.4115764 31.0621096,15.9210526 C30.9372675,16.4305289 30.8748474,17.0056108 30.8748474,17.6463158 C30.8748474,17.9705279 30.9060575,18.2754372 30.9684785,18.5610526 C31.0308995,18.8466681 31.1284309,19.095613 31.2610756,19.3078947 C31.3937203,19.5201765 31.5692768,19.6899994 31.7877504,19.8173684 C32.006224,19.9447375 32.2676082,20.0084211 32.5719107,20.0084211 C32.8372001,20.0084211 33.0946829,19.8752645 33.3443671,19.6089474 Z M72.5172686,3.79789474 C72.5172686,3.38105055 72.4802067,3.09157976 72.4060817,2.92947368 C72.3319567,2.76736761 72.2246722,2.68631579 72.0842249,2.68631579 C71.8345408,2.68631579 71.6082679,2.84263002 71.4053996,3.15526316 C71.2025312,3.4678963 71.0230735,3.86736599 70.8670209,4.35368421 C70.7109683,4.84000243 70.5744244,5.37648829 70.4573849,5.96315789 C70.3403455,6.54982749 70.2428141,7.11719024 70.1647878,7.66526316 C70.0867615,8.21333607 70.0243414,8.70736622 69.9775257,9.14736842 C69.9307099,9.58737062 69.8994999,9.89999907 69.8838946,10.0852632 C69.8526841,10.4635107 69.8273259,10.8282439 69.8078193,11.1794737 C69.7883128,11.5307035 69.7746584,11.8510512 69.7668557,12.1405263 C69.7590531,12.4300014 69.7551519,12.6828059 69.7551519,12.8989474 L69.7551519,13.3968421 L69.7551519,13.5126316 C70.1999017,12.5091178 70.6095336,11.5094787 70.9840597,10.5136842 C71.1401123,10.0891207 71.2981132,9.64333567 71.4580671,9.17631579 C71.618021,8.70929591 71.764318,8.24035323 71.8969627,7.76947368 C72.0296074,7.29859414 72.1446945,6.83544087 72.2422273,6.38 C72.3397602,5.92455913 72.4080322,5.49228275 72.4470453,5.08315789 C72.4938611,4.54280432 72.5172686,4.11438755 72.5172686,3.79789474 Z M65.5710131,13.8773684 C65.1691778,14.2826336 64.8336698,14.8171897 64.5644791,15.4810526 C64.2952884,16.1449156 64.0904724,16.716138 63.9500251,17.1947368 C63.8095778,17.6733357 63.7393552,18.1056121 63.7393552,18.4915789 C63.7393552,18.6459657 63.7569109,18.8003501 63.7920227,18.9547368 C63.8271345,19.1091236 63.8915052,19.2480696 63.9851368,19.3715789 C64.0787683,19.4950883 64.211411,19.5954382 64.3830689,19.6726316 C64.5547267,19.7498249 64.7770983,19.7884211 65.0501903,19.7884211 C65.1906376,19.7884211 65.3291322,19.7536846 65.4656782,19.6842105 C65.6022242,19.6147365 65.7329163,19.5240356 65.8577583,19.4121053 C65.9826004,19.3001749 66.1015887,19.1728077 66.2147268,19.03 C66.3278649,18.8871923 66.4312482,18.7385973 66.5248797,18.5842105 C66.7433533,18.229121 66.9423174,17.8277215 67.1217778,17.38 C67.09837,17.2719293 67.0788637,17.1001766 67.0632584,16.8647368 C67.0476532,16.6292971 67.0359494,16.2703533 67.0281468,15.7878947 C67.0203441,15.3054362 67.0125416,14.9098261 67.004739,14.6010526 C66.9969364,14.2922792 66.9910845,14.0105276 66.9871832,13.7557895 C66.9832819,13.5010514 66.97743,13.2926324 66.9696273,13.1305263 C66.9618247,12.9684202 66.9540222,12.891228 66.9462196,12.8989474 C66.4312461,13.1459661 65.9728485,13.4721032 65.5710131,13.8773684 Z M76.6897035,19.0415789 C76.7170127,19.2229834 76.7657784,19.385087 76.836002,19.5278947 C76.9062257,19.6707025 76.9998558,19.7864908 77.1168952,19.8752632 C77.2339347,19.9640355 77.3821824,20.0084211 77.5616429,20.0084211 C77.8503401,20.0084211 78.1117243,19.8849135 78.3458031,19.6378947 C78.579882,19.390876 78.7827473,19.0936859 78.9544051,18.7463158 C79.1260629,18.3989456 79.2645575,18.0400019 79.369893,17.6694737 C79.4752285,17.2989455 79.5435005,16.9901767 79.574711,16.7431579 L80.4525023,12.9568421 C80.1325946,12.9568421 79.8204941,13.0359641 79.5161916,13.1942105 C79.2118891,13.3524569 78.9251467,13.5666653 78.6559561,13.8368421 C78.3867654,14.1070189 78.1390356,14.4157877 77.9127594,14.7631579 C77.6864832,15.1105281 77.4641116,15.5389448 77.245638,16.0484211 C77.0271644,16.5578973 76.8730648,17.0056121 76.7833345,17.3915789 C76.6936043,17.7775458 76.6487399,18.1403492 76.6487399,18.48 C76.6487399,18.6729834 76.6623943,18.8601745 76.6897035,19.0415789 Z M91.7291951,2.95263158 C91.7174911,2.8522802 91.6901824,2.74807072 91.6472679,2.64 C91.6043534,2.53192928 91.543884,2.43543902 91.4658577,2.35052632 C91.3878314,2.26561361 91.2824975,2.22315789 91.1498528,2.22315789 C90.9938002,2.22315789 90.8318981,2.33315679 90.6641416,2.55315789 C90.4963851,2.77315899 90.3305817,3.07034901 90.1667265,3.44473684 C90.0028713,3.81912468 89.8429198,4.25140106 89.6868672,4.74157895 C89.5308147,5.23175684 89.3786657,5.74508504 89.2304157,6.28157895 C89.0821658,6.81807286 88.9436712,7.36420775 88.8149278,7.92 C88.6861845,8.47579225 88.5691468,9.00262909 88.4638113,9.50052632 C88.3584758,9.99842354 88.2667963,10.4538576 88.18877,10.8668421 C88.1107437,11.2798266 88.0483236,11.6136829 88.0015079,11.8684211 C88.2121788,11.4670155 88.4482048,11.0501776 88.7095929,10.6178947 C88.9709809,10.1856119 89.2343157,9.73596725 89.4996051,9.26894737 C89.7648945,8.80192749 90.024328,8.32333578 90.2779134,7.83315789 C90.5314988,7.34298001 90.7616729,6.84123064 90.9684426,6.32789474 C91.1752123,5.81455884 91.3468675,5.29351142 91.4834135,4.76473684 C91.6199595,4.23596227 91.7077378,3.6975466 91.7467509,3.14947368 C91.7467509,3.11859634 91.740899,3.05298296 91.7291951,2.95263158 Z M89.7804983,13.9236842 C89.5074063,14.0356146 89.2538247,14.2092971 89.0197458,14.4447368 C88.785667,14.6801766 88.5789004,14.983156 88.3994399,15.3536842 C88.0483216,16.0715825 87.9156789,16.5115781 88.0015079,16.6736842 C88.0015079,16.6891229 87.942989,17.1522761 87.8259496,18.0631579 C87.7791338,18.4105281 87.7401213,18.7192969 87.7089107,18.9894737 C87.6777002,19.2982472 87.6503914,19.5877179 87.6269836,19.8578947 C87.8844703,19.9350881 88.1419532,20.0007015 88.3994399,20.0547368 C88.6257162,20.1010529 88.8636928,20.1049125 89.1133769,20.0663158 C89.363061,20.0277191 89.6010376,20.0084211 89.8273139,20.0084211 C90.0926032,20.0084211 90.3344811,19.9312288 90.5529547,19.7768421 C90.7714283,19.6224554 90.9664911,19.4159662 91.1381489,19.1573684 C91.3098068,18.8987706 91.4580545,18.6035104 91.5828965,18.2715789 C91.7077386,17.9396475 91.8091712,17.5942123 91.8871975,17.2352632 C91.9652238,16.876314 92.0237427,16.5212298 92.0627558,16.17 C92.1017689,15.8187702 92.1212752,15.4964927 92.1212752,15.2031579 C92.1212752,15.0101745 92.0998183,14.826843 92.0569039,14.6531579 C92.0139894,14.4794728 91.9359643,14.3270182 91.8228262,14.1957895 C91.709688,14.0645607 91.5536378,13.9584215 91.3546708,13.8773684 C91.1557038,13.7963154 90.9040728,13.7557895 90.5997702,13.7557895 C90.3266782,13.7557895 90.0535903,13.8117538 89.7804983,13.9236842 Z M101.449271,19.6089474 C101.698955,19.3426302 101.917426,19.0068441 102.104689,18.6015789 C102.291952,18.1963138 102.44215,17.7061432 102.555288,17.1310526 C102.668426,16.555962 102.724995,16.0445636 102.724995,15.5968421 C102.724995,15.2417526 102.697686,14.9117559 102.643067,14.6068421 C102.588449,14.3019283 102.506523,14.037545 102.397286,13.8136842 C102.288049,13.5898234 102.147604,13.4122814 101.975946,13.2810526 C101.804288,13.1498239 101.597522,13.0842105 101.35564,13.0842105 C101.035732,13.0842105 100.731434,13.2192969 100.442737,13.4894737 C100.15404,13.7596505 99.9004582,14.1050856 99.6819846,14.5257895 C99.463511,14.9464933 99.2918558,15.4115764 99.1670137,15.9210526 C99.0421717,16.4305289 98.9797516,17.0056108 98.9797516,17.6463158 C98.9797516,17.9705279 99.0109616,18.2754372 99.0733826,18.5610526 C99.1358037,18.8466681 99.2333351,19.095613 99.3659798,19.3078947 C99.4986244,19.5201765 99.674181,19.6899994 99.8926546,19.8173684 C100.111128,19.9447375 100.372512,20.0084211 100.676815,20.0084211 C100.942104,20.0084211 101.199587,19.8752645 101.449271,19.6089474 Z M124.52348,4.69526316 C124.511776,4.59105211 124.486417,4.49263204 124.447404,4.4 C124.408391,4.30736796 124.347922,4.23017575 124.265994,4.16842105 C124.184067,4.10666636 124.068979,4.07578947 123.92073,4.07578947 C123.717861,4.07578947 123.513045,4.25333156 123.306276,4.60842105 C123.099506,4.96351055 122.900542,5.41701478 122.709377,5.96894737 C122.518213,6.52087995 122.338755,7.12876861 122.170999,7.79263158 C122.003242,8.45649455 121.849143,9.10104951 121.708695,9.72631579 C121.825735,9.74175446 121.942772,9.7552631 122.059812,9.76684211 C122.176851,9.77842111 122.29779,9.79192975 122.422632,9.80736842 C122.656711,9.41368224 122.90054,8.98719528 123.154125,8.52789474 C123.407711,8.06859419 123.635934,7.61701976 123.838802,7.17315789 C124.041671,6.72929603 124.209425,6.31438789 124.342069,5.92842105 C124.474714,5.54245421 124.541035,5.22596615 124.541035,4.97894737 C124.541035,4.89403466 124.535184,4.79947421 124.52348,4.69526316 Z M144.794608,19.0415789 C144.821917,19.2229834 144.870682,19.385087 144.940906,19.5278947 C145.01113,19.6707025 145.10476,19.7864908 145.221799,19.8752632 C145.338839,19.9640355 145.487087,20.0084211 145.666547,20.0084211 C145.955244,20.0084211 146.216628,19.8849135 146.450707,19.6378947 C146.684786,19.390876 146.887651,19.0936859 147.059309,18.7463158 C147.230967,18.3989456 147.369462,18.0400019 147.474797,17.6694737 C147.580133,17.2989455 147.648405,16.9901767 147.679615,16.7431579 L148.557406,12.9568421 C148.237499,12.9568421 147.925398,13.0359641 147.621096,13.1942105 C147.316793,13.3524569 147.030051,13.5666653 146.76086,13.8368421 C146.49167,14.1070189 146.24394,14.4157877 146.017664,14.7631579 C145.791387,15.1105281 145.569016,15.5389448 145.350542,16.0484211 C145.132069,16.5578973 144.977969,17.0056121 144.888239,17.3915789 C144.798508,17.7775458 144.753644,18.1403492 144.753644,18.48 C144.753644,18.6729834 144.767298,18.8601745 144.794608,19.0415789 Z M156.855461,27.0715789 C156.324882,27.920706 155.903546,28.7852588 155.591441,29.6652632 C155.333954,30.4063195 155.462696,30.7768421 155.977669,30.7768421 C156.164932,30.7768421 156.332686,30.7536844 156.480936,30.7073684 C156.629186,30.6610524 156.76573,30.5780708 156.890572,30.4584211 C157.015414,30.3387713 157.124649,30.2075446 157.218281,30.0647368 C157.311913,29.9219291 157.411395,29.7212294 157.51673,29.4626316 C157.622066,29.2040338 157.715696,28.9492995 157.797623,28.6984211 C157.879551,28.4475426 157.982934,28.1136863 158.107776,27.6968421 C158.178,27.4729813 158.234568,27.2259663 158.277483,26.9557895 C158.320397,26.6856127 158.35941,26.355616 158.394521,25.9657895 C158.429633,25.575963 158.454991,25.3270181 158.470597,25.2189474 C157.924413,25.6049142 157.386039,26.2224519 156.855461,27.0715789 Z" id="Combined-Shape-Copy-2" fill="#FFFFFF"></path>
    </g>
</svg>